Coordinates
version=1
nRows=9
nColumns=36
inDegrees=yes

Units are S.I. units (second, meters, Newtons, ...)
If the header above contains a line with 'inDegrees', this indicates whether rotational values are in degrees (yes) or radians (no).

endheader
time	pelvis_tilt	pelvis_list	pelvis_rotation	pelvis_tx	pelvis_ty	pelvis_tz	hip_flexion_r	hip_adduction_r	hip_rotation_r	knee_angle_r	knee_angle_r_beta	ankle_angle_r	subtalar_angle_r	mtp_angle_r	hip_flexion_l	hip_adduction_l	hip_rotation_l	knee_angle_l	knee_angle_l_beta	ankle_angle_l	subtalar_angle_l	mtp_angle_l	lumbar_extension	lumbar_bending	lumbar_rotation	arm_flex_r	arm_add_r	arm_rot_r	elbow_flex_r	pro_sup_r	arm_flex_l	arm_add_l	arm_rot_l	elbow_flex_l	pro_sup_l
      5.48333330	     -4.26440804	     -4.29411893	     -1.55948937	      1.34217776	      0.90295357	     -0.19085586	     42.44082811	     -1.87011753	     -6.67454186	     41.22623260	      0.71953350	     28.92635956	     -2.14786092	     -7.49999987	     17.82289864	      0.13732660	     -0.38942929	     32.08029957	      0.55990685	     31.07811587	     -1.45772386	     -7.49999987	    -17.35616068	     -1.53724529	      4.51146505	     33.36116272	     -4.91869544	     62.43790159	    126.51764379	     93.47096549	     46.47492602	     -3.98421492	     69.98487549	    124.27356075	     91.94263288
      5.50000000	     -3.14607959	     -4.06922959	     -1.28229716	      1.33970898	      0.89732869	     -0.19151829	     42.82141834	     -2.25435685	     -6.34898250	     40.85986391	      0.71313916	     28.95201106	     -2.61927011	     -7.49999987	     17.52207880	      0.93699283	      0.05648460	     33.33659317	      0.58183331	     30.53795526	     -2.65124015	     -7.49999987	    -19.60778683	     -1.54888579	      4.12773239	     34.64224350	     -5.24752961	     62.30460384	    126.96799366	     93.94627549	     47.75401375	     -3.80236065	     69.69188340	    123.86763999	     92.81600977
      5.51666670	     -2.76506964	     -3.62276122	     -1.23967172	      1.33813039	      0.89546666	     -0.19138964	     43.89373153	     -2.67779500	     -6.10382700	     40.21745735	      0.70192705	     28.93864367	     -3.01699615	     -7.49999987	     17.68362487	      1.80170312	     -0.00214686	     34.49407631	      0.60203520	     30.04883751	     -2.76341361	     -7.49999987	    -20.84264115	     -1.76934658	      3.99927623	     35.47105099	     -5.14445427	     62.07302571	    126.82653191	     93.79980438	     48.74269666	     -3.73061839	     69.11411069	    123.53874200	     92.73159223
      5.53333330	     -2.21581746	     -2.94995197	     -1.33924296	      1.33639027	      0.89397268	     -0.19123028	     44.48613365	     -3.19263714	     -5.89493492	     39.41169685	      0.68786387	     28.37952346	     -3.48007343	     -7.49999987	     17.45316460	      2.86570586	     -0.05253145	     35.40471990	      0.61792893	     29.59191366	     -3.04124256	     -7.49999987	    -22.19318388	     -2.23010138	      3.86426319	     36.08949760	     -4.90213996	     62.28461167	    126.60646756	     93.83964110	     49.42457489	     -3.75209726	     68.91756908	    123.69632548	     92.97439300
      5.55000000	     -2.17527854	     -2.21441076	     -1.45000880	      1.32979799	      0.88770944	     -0.19274493	     45.68967981	     -3.75648923	     -5.63968605	     38.97717127	      0.68027997	     27.52830126	     -3.57681606	     -7.49999987	     18.12618155	      3.83584526	     -0.31817509	     36.66647654	      0.63995074	     29.39448791	     -2.90106889	     -7.49999987	    -22.94031164	     -2.66115123	      3.52352240	     36.74927790	     -4.45773042	     61.73219583	    125.91304011	     94.04562032	     50.27385828	     -3.71760017	     68.37953487	    123.92461373	     93.53089291
      5.56666670	     -2.14638639	     -1.30992983	     -1.50203964	      1.32385603	      0.88652248	     -0.19489671	     46.81935704	     -4.49154761	     -5.38856985	     38.65265305	      0.67461606	     26.29686368	     -3.57719825	     -7.49999987	     19.02651083	      4.92542066	     -0.63663074	     37.95232253	      0.66239299	     29.14322626	     -2.98258259	     -7.49999987	    -23.90003274	     -3.25195150	      3.06170405	     37.67493911	     -4.56670836	     61.73434566	    125.20848305	     93.04919077	     51.02178492	     -4.28892031	     68.22196633	    123.50646799	     93.04292040
      5.58333330	     -2.02648819	     -0.42073339	     -1.53885179	      1.32322630	      0.88677827	     -0.19451472	     47.67614928	     -5.28007143	     -5.25105700	     38.10292414	      0.66502148	     24.88598933	     -3.47653377	     -7.49999987	     19.70318716	      5.91247273	     -1.01405477	     38.99542653	      0.68059859	     28.94685434	     -2.91541578	     -7.49999987	    -24.95992791	     -3.90023571	      2.24825198	     38.36248478	     -4.35692328	     61.69212530	    124.52494303	     94.92996082	     51.56566661	     -5.48344116	     68.09988519	    123.23512684	     96.98190379
      5.60000000	     -1.66742714	      0.35350762	     -1.55424748	      1.32204189	      0.88419803	     -0.19411121	     48.14318686	     -6.00542327	     -5.10654073	     37.55247247	      0.65541429	     23.49115230	     -3.08400138	     -7.49999987	     20.26946393	      6.70950002	     -1.40088442	     40.19615841	      0.70155531	     28.77418323	     -2.90109536	     -7.49999987	    -26.12187565	     -4.47304249	      2.07547518	     38.50484135	     -4.26033288	     61.50727571	    124.15961156	     94.91871108	     51.89479927	     -5.80703132	     68.10291494	    122.95953242	     96.99404691
      5.61666670	     -1.83198960	      1.60638393	     -1.58632805	      1.32099213	      0.87637578	     -0.19335445	     49.57227389	     -6.93230714	     -4.21464765	     37.52306062	      0.65490095	     22.16098790	     -3.43506716	     -7.49999987	     21.78736298	      7.87541870	     -2.02213917	     41.81835733	      0.72986802	     28.56338717	     -3.42865655	     -7.49999987	    -26.59319433	     -5.69549330	      1.40678531	     39.10905768	     -3.43199701	     61.71306503	    123.70955084	     93.05988273	     52.83704000	     -6.05553163	     68.50980472	    123.43938469	     95.01120574
